<svg version="1.1" viewBox="0.0 0.0 96.0 96.0" fill="none" stroke="none" stroke-linecap="square" stroke-miterlimit="10" xmlns:xlink="http://www.w3.org/1999/xlink" xmlns="http://www.w3.org/2000/svg"><clipPath id="p.0"><path d="m0 0l96.0 0l0 96.0l-96.0 0l0 -96.0z" clip-rule="nonzero"/></clipPath><g clip-path="url(#p.0)"><path fill="#000000" fill-opacity="0.0" d="m0 0l96.0 0l0 96.0l-96.0 0z" fill-rule="evenodd"/><path fill="#000000" d="m33.27034 48.0l15.104881 -12.0l0 7.32024l38.091972 0l0 9.35952l-38.091972 0l0 7.32024z" fill-rule="evenodd"/><path fill="#000000" d="m9.532808 0l53.196854 0l0 9.606299l-53.196854 0z" fill-rule="evenodd"/><path fill="#000000" d="m9.532808 86.3937l53.196854 0l0 9.6063l-53.196854 0z" fill-rule="evenodd"/><path fill="#000000" d="m9.532808 0l9.606298 0l0 96.0l-9.606298 0z" fill-rule="evenodd"/><path fill="#000000" d="m53.12336 0l9.6063 0l0 38.3937l-9.6063 0z" fill-rule="evenodd"/><path fill="#000000" d="m53.12336 57.6063l9.6063 0l0 38.3937l-9.6063 0z" fill-rule="evenodd"/></g></svg>