<svg version="1.1" viewBox="0.0 0.0 96.0 96.0" fill="none" stroke="none" stroke-linecap="square" stroke-miterlimit="10" xmlns:xlink="http://www.w3.org/1999/xlink" xmlns="http://www.w3.org/2000/svg"><clipPath id="p.0"><path d="m0 0l96.0 0l0 96.0l-96.0 0l0 -96.0z" clip-rule="nonzero"/></clipPath><g clip-path="url(#p.0)"><path fill="#000000" fill-opacity="0.0" d="m0 0l96.0 0l0 96.0l-96.0 0z" fill-rule="evenodd"/><path fill="#000000" fill-opacity="0.0" d="m4.570252 21.621662l126.519684 0l0 74.11023l-126.519684 0z" fill-rule="evenodd"/><path fill="#000000" d="m16.664001 81.821655l0 -34.656246l12.90625 0q3.734375 0 6.875 0.984375q3.15625 0.984375 5.0625 3.4375q1.921875 2.453125 1.921875 6.765625q0 4.15625 -1.921875 6.781246q-1.90625 2.609375 -5.0625 3.84375q-3.140625 1.21875 -6.875 1.21875l-3.734375 0l0 11.625l-9.171875 0zm9.171875 -18.874996l3.09375 0q2.71875 0 4.125 -1.171875q1.421875 -1.171875 1.421875 -3.421875q0 -2.234375 -1.421875 -3.078125q-1.40625 -0.859375 -4.125 -0.859375l-3.09375 0l0 8.53125zm2.078125 4.843746l6.1875 -6.078121l11.25 20.109371l-10.234375 0l-7.203125 -14.03125zm21.059326 14.03125l0 -34.656246l13.015625 0q3.734375 0 6.875 1.0625q3.15625 1.0625 5.078125 3.578125q1.921875 2.5 1.921875 6.875q0 4.203125 -1.953125 6.906246q-1.953125 2.6875 -5.125 3.96875q-3.171875 1.28125 -6.796875 1.28125l-3.84375 0l0 10.984375l-9.171875 0zm9.171875 -18.234371l3.421875 0q2.71875 0 4.015625 -1.296875q1.3125 -1.3125 1.3125 -3.609375q0 -2.34375 -1.390625 -3.296875q-1.375 -0.96875 -3.9375 -0.96875l-3.421875 0l0 9.171875z" fill-rule="nonzero"/><path fill="#000000" d="m3.8511643 28.787401l9.606298 0l0 67.2126l-9.606298 0z" fill-rule="evenodd"/><path fill="#000000" d="m13.457463 86.3937l76.7874 0l0 9.6063l-76.7874 0z" fill-rule="evenodd"/><path fill="#000000" d="m80.638565 52.787403l9.6063 0l0 33.606297l-9.6063 0z" fill-rule="evenodd"/><path fill="#000000" d="m13.457463 28.787401l48.0 0l0 9.606298l-48.0 0z" fill-rule="evenodd"/><path fill="#000000" d="m71.032265 48.0l9.6063 0l0 -29.03937l-9.6063 0z" fill-rule="evenodd"/><path fill="#000000" d="m92.150375 19.212599l-16.314957 -19.212599l-16.314964 19.212599z" fill-rule="evenodd"/></g></svg>